<svg width="18" height="18" viewBox="0 0 18 18" fill="none" xmlns="http://www.w3.org/2000/svg">
<path d="M3.58333 5.41667L2.19036 6.80964C0.88861 8.11139 0.88861 10.2219 2.19036 11.5237L3.58333 12.9167M3.58333 5.41667L6.64298 2.35702C7.94473 1.05527 10.0553 1.05527 11.357 2.35702L14.4167 5.41667M3.58333 5.41667L5.35355 5.41667C5.55541 5.41667 5.7504 5.48993 5.90231 5.62285L8.45125 7.85317C8.76544 8.12809 9.23457 8.12809 9.54875 7.85317L12.0977 5.62285C12.2496 5.48993 12.4446 5.41667 12.6464 5.41667L14.4167 5.41667M14.4167 5.41667L15.8096 6.80964C17.1114 8.11139 17.1114 10.2219 15.8096 11.5237L14.4167 12.9167M3.58333 12.9167L6.64298 15.9763C7.94473 17.2781 10.0553 17.2781 11.357 15.9763L14.4167 12.9167M3.58333 12.9167L5.42767 12.9167C5.58385 12.9167 5.73689 12.8728 5.86934 12.79L8.55833 11.1094C8.82856 10.9405 9.17144 10.9405 9.44167 11.1094L12.1307 12.79C12.2631 12.8728 12.4161 12.9167 12.5723 12.9167H14.4167" stroke="#B8B8B8" stroke-width="1.66667"/>
</svg>
